<?xml version="1.0" encoding="UTF-8"?> <svg xmlns="http://www.w3.org/2000/svg" id="Слой_1" data-name="Слой 1" viewBox="0 0 547.78 213.19"><defs><style>.cls-1{fill:#2f3234;}</style></defs><g id="g248"><path id="svg_3" data-name="svg 3" class="cls-1" d="M338.81,195.15c-11,5.81-14.91,15.38-14.91,41.91a42.69,42.69,0,0,1,13.66-8.32,53.79,53.79,0,0,0,14-7.53c9.26-6.75,10.52-15.39,10.52-30,0,0-15.07-.47-23.24,3.93Z" transform="translate(-25.36 -191.05)"></path><path id="svg_4" data-name="svg 4" class="cls-1" d="M274.46,201.43c-8.79,7.85-11.46,20.25-11.46,20.25L233.49,335l-24.35-92.92c-2.35-9.73-6.75-22.13-13.5-30.29-8.47-10.36-25.9-11-27.78-11s-19.46.63-28.1,11.14c-6.75,8.32-11.14,20.57-13.5,30.3l-24.33,92.92L72.76,221.68s-2.51-12.56-11.46-20.25c-14.44-12.72-35.94-10-35.94-10L81.36,404s18.55,1.37,27.78-3.53c12.08-6.12,18-11,25.42-40,6.6-25.74,25-101.4,26.69-106.89.78-2.67,1.88-9.1,6.59-9.1,4.87,0,5.81,6.27,6.59,9.1,1.73,5.34,19.94,81.15,26.69,106.89,7.37,28.88,13.18,33.59,25.42,40,9.27,4.87,27.79,3.45,27.79,3.45l56-212.37S288.9,188.87,274.46,201.43Zm87.59,24.64s-3.46,5.34-11.46,10.05c-5.18,2.82-10,4.86-15.39,7.37-8.79,4.24-11.3,9.11-11.3,16.33V403.91s14.29,1.73,23.39-2.82c11.93-6.12,14.6-11.93,14.76-38.46Zm140,72.05L573.14,192s-30-5.18-44.89,8.48c-9.57,8.63-20.25,24.17-20.25,24.17l-26,38c-1.42,1.89-2.83,4.09-5.5,4.09s-4.39-2-5.49-4.09l-26.37-37.82s-10.5-15.56-20.28-24.2c-14.75-13.65-44.89-8.47-44.89-8.47L450.73,298,379.47,403.6s31.39,4.08,46.15-9.58c9.57-8.63,18.83-22.91,18.83-22.91l26.06-37.83c1.41-1.89,2.82-4.08,5.49-4.08s4.4,2,5.5,4.08l26,37.83s9.73,14,19.15,22.91c14.76,13.66,45.68,9.58,45.68,9.58Z" transform="translate(-25.36 -191.05)"></path></g></svg> 